HIERARCHY
ROOT Hips
{
  OFFSET 53.0882 95.2725 36.7694
  CHANNELS 6 Xposition Yposition Zposition Zrotation Xrotation Yrotation
  JOINT spine
  {
    OFFSET 0 7.96568 0.458067
    CHANNELS 3 Zrotation Xrotation Yrotation
    JOINT spine1
    {
      OFFSET 0 10.2431 0
      CHANNELS 3 Zrotation Xrotation Yrotation
      JOINT spine2
      {
        OFFSET 0 9.81475 0
        CHANNELS 3 Zrotation Xrotation Yrotation
        JOINT Neck
        {
          OFFSET 0 25.1986 1.20138
          CHANNELS 3 Zrotation Xrotation Yrotation
          JOINT Head
          {
            OFFSET 0 7.61315 0
            CHANNELS 3 Zrotation Xrotation Yrotation
            End Site
            {
              OFFSET 0 18.4281 -6.07733
            }
          }
        }
        JOINT RightShoulder
        {
          OFFSET -4.1327 10.5992 -0.575451
          CHANNELS 3 Zrotation Xrotation Yrotation
          JOINT RightArm
          {
            OFFSET 0 13.9018 0
            CHANNELS 3 Zrotation Xrotation Yrotation
            JOINT RightArmRoll
            {
              OFFSET 0 7.01788 0
              CHANNELS 3 Zrotation Xrotation Yrotation
              JOINT RightForeArm
              {
                OFFSET 0 20.4406 0
                CHANNELS 3 Zrotation Xrotation Yrotation
                JOINT RightForeArmRoll
                {
                  OFFSET 0 7.87515 0
                  CHANNELS 3 Zrotation Xrotation Yrotation
                  JOINT RightHand
                  {
                    OFFSET 0 15.8037 0
                    CHANNELS 3 Zrotation Xrotation Yrotation
                    End Site
                    {
                      OFFSET 0 0 0
                    }
                  }
                }
              }
            }
          }
        }
        JOINT LeftShoulder
        {
          OFFSET 4.1327 10.5992 -0.575451
          CHANNELS 3 Zrotation Xrotation Yrotation
          JOINT LeftArm
          {
            OFFSET 0 13.9018 0
            CHANNELS 3 Zrotation Xrotation Yrotation
            JOINT LeftArmRoll
            {
              OFFSET 0 7.01789 0
              CHANNELS 3 Zrotation Xrotation Yrotation
              JOINT LeftForeArm
              {
                OFFSET 0 20.4406 0
                CHANNELS 3 Zrotation Xrotation Yrotation
                JOINT LeftForeArmRoll
                {
                  OFFSET 0 7.87515 0
                  CHANNELS 3 Zrotation Xrotation Yrotation
                  JOINT LeftHand
                  {
                    OFFSET 0 15.8037 0
                    CHANNELS 3 Zrotation Xrotation Yrotation
                    End Site
                    {
                      OFFSET 0 0 0
                    }
                  }
                }
              }
            }
          }
        }
      }
    }
  }
  JOINT RightUpLeg
  {
    OFFSET -7.06048 -1.2947 -1.0861
    CHANNELS 3 Zrotation Xrotation Yrotation
    JOINT RightUpLegRoll
    {
      OFFSET 0 18.5308 0
      CHANNELS 3 Zrotation Xrotation Yrotation
      JOINT RightLeg
      {
        OFFSET 0 -22.9476 0
        CHANNELS 3 Zrotation Xrotation Yrotation
        JOINT RightLegRoll
        {
          OFFSET 0 23.0226 0
          CHANNELS 3 Zrotation Xrotation Yrotation
          JOINT RightFoot
          {
            OFFSET 0 19.1625 0
            CHANNELS 3 Zrotation Xrotation Yrotation
            JOINT RightToeBase
            {
              OFFSET 0 16.0188 0
              CHANNELS 3 Zrotation Xrotation Yrotation
              End Site
              {
                OFFSET 0.00678979 7.75782 -0.894206
              }
            }
          }
        }
      }
    }
  }
  JOINT LeftUpLeg
  {
    OFFSET 7.06048 -1.2947 -1.0861
    CHANNELS 3 Zrotation Xrotation Yrotation
    JOINT LeftUpLegRoll
    {
      OFFSET 0 18.5309 0
      CHANNELS 3 Zrotation Xrotation Yrotation
      JOINT LeftLeg
      {
        OFFSET 0 22.9475 0
        CHANNELS 3 Zrotation Xrotation Yrotation
        JOINT LeftLegRoll
        {
          OFFSET 0 23.2355 0
          CHANNELS 3 Zrotation Xrotation Yrotation
          JOINT LeftFoot
          {
            OFFSET 0 18.9496 0
            CHANNELS 3 Zrotation Xrotation Yrotation
            JOINT LeftToeBase
            {
              OFFSET 0 16.0188 0
              CHANNELS 3 Zrotation Xrotation Yrotation
              End Site
              {
                OFFSET -0.0304289 7.75782 -0.894206
              }
            }
          }
        }
      }
    }
  }
}
MOTION
Frames: 9
Frame Time: 0.00208333
52.3081 95.5029 11.8217 -1.24808 -2.81909 2.7415 0.414052 -1.55067 -0.00162591 0.821872 0.901193 -0.0456965 0.822964 2.54616 -0.0594528 -0.278047 20.182 -1.51148 0.797367 -0.235755 -1.52721 67.0471 -0.961696 -1.49831 101.918 14.9893 19.0106 -3.38311e-006 9.27186e-007 -1.054e-006 6.44227 7.69832 -0.691357 -2.58126e-005 -2.9252e-006 -3.00354 8.02932 -4.95142 0.697658 -66.5369 -0.541586 1.22412 -106.481 15.0979 -16.0126 2.7048e-006 1.12702e-006 -5.67448e-006 -5.72459 7.88784 0.208656 6.84271e-006 -3.80642e-006 3.00544 -8.02944 -4.9514 -0.697669 176.844 -3.75134 -2.23231 180 7.01511e-015 178.775 177.465 6.12123 179.611 -5.45647e-007 -1.92831e-007 0.12843 -20.0602 69.4274 20.7859 8.15584 25.6588 -2.91188 -172.639 -1.68156 -0.677518 4.54188e-006 -4.6773e-006 -1.21536 -1.93063 -10.4193 0.103765 -2.06898e-006 2.67357e-006 -0.314047 22.7988 72.0555 -23.6738 -8.13414 25.3385 3.35217 
52.3116 95.5 11.8119 -1.24953 -2.81186 2.74125 0.415201 -1.55147 -0.00161855 0.82458 0.899574 -0.0458021 0.825671 2.54454 -0.0596058 -0.296989 20.1697 -1.50864 0.805588 -0.227173 -1.52974 67.0278 -0.974675 -1.50308 101.964 15.0053 19.0303 -3.38311e-006 9.27186e-007 -1.054e-006 6.39599 7.65692 -0.681908 -2.58126e-005 -2.9252e-006 -3.00354 8.02932 -4.95142 0.697658 -66.5648 -0.53791 1.22525 -106.479 15.1361 -16.0344 2.7048e-006 1.12702e-006 -5.67448e-006 -5.69085 7.81542 0.201495 6.84271e-006 -3.80642e-006 3.00544 -8.02944 -4.9514 -0.697669 176.845 -3.74728 -2.23476 180 7.01511e-015 178.775 177.466 6.1203 179.611 -5.45647e-007 -1.92831e-007 0.12843 -20.0621 69.4292 20.7879 8.15584 25.6587 -2.91191 -172.638 -1.6756 -0.678319 4.54188e-006 -4.6773e-006 -1.21523 -1.93065 -10.4235 0.103824 -2.06898e-006 2.67357e-006 -0.314029 22.804 72.0595 -23.6793 -8.13418 25.339 3.35079 
52.3159 95.5021 11.8289 -1.25089 -2.80489 2.74095 0.416423 -1.55222 -0.0015117 0.827452 0.898084 -0.0457172 0.828539 2.54305 -0.0595711 -0.317867 20.1565 -1.50536 0.815262 -0.217572 -1.53234 67.0062 -0.988453 -1.50803 102.013 15.0213 19.0497 -3.38311e-006 9.27186e-007 -1.054e-006 6.34862 7.61569 -0.672271 -2.58126e-005 -2.9252e-006 -3.00354 8.02932 -4.95142 0.697658 -66.5939 -0.534098 1.22647 -106.476 15.1745 -16.0557 2.7048e-006 1.12702e-006 -5.67448e-006 -5.65782 7.74394 0.194397 6.84271e-006 -3.80642e-006 3.00544 -8.02944 -4.9514 -0.697669 176.847 -3.74361 -2.23718 180 7.01511e-015 178.775 177.467 6.11908 179.61 -5.45647e-007 -1.92831e-007 0.12843 -20.0638 69.431 20.7898 8.15583 25.6586 -2.91198 -172.636 -1.67013 -0.679008 4.54188e-006 -4.6773e-006 -1.21511 -1.93062 -10.4274 0.103897 -2.06898e-006 2.67357e-006 -0.313988 22.8091 72.0634 -23.6847 -8.13422 25.3396 3.34937 
52.307 95.5019 11.8466 -1.25218 -2.79811 2.74061 0.417698 -1.55292 -0.00133522 0.830438 0.896685 -0.0454989 0.831521 2.54165 -0.0594049 -0.340099 20.1426 -1.50179 0.825956 -0.207258 -1.53497 66.9829 -1.00279 -1.51312 102.064 15.0372 19.0689 -3.38311e-006 9.27186e-007 -1.054e-006 6.30049 7.57459 -0.662504 -2.58126e-005 -2.9252e-006 -3.00354 8.02932 -4.95142 0.697658 -66.6241 -0.530191 1.22774 -106.472 15.2131 -16.0767 2.7048e-006 1.12702e-006 -5.67448e-006 -5.62529 7.67312 0.187343 6.84271e-006 -3.80642e-006 3.00544 -8.02944 -4.9514 -0.697669 176.848 -3.74023 -2.23959 180 7.01511e-015 178.775 177.468 6.11772 179.61 -5.45647e-007 -1.92831e-007 0.12843 -20.0655 69.4328 20.7916 8.15582 25.6585 -2.91207 -172.635 -1.66501 -0.679619 4.54188e-006 -4.6773e-006 -1.21498 -1.93055 -10.431 0.10398 -2.06898e-006 2.67357e-006 -0.313932 22.8141 72.0673 -23.6899 -8.13426 25.3402 3.34792 
52.3034 95.5009 11.8425 -1.25343 -2.79143 2.74025 0.419002 -1.55359 -0.00111894 0.833491 0.895338 -0.0452043 0.834568 2.5403 -0.0591635 -0.363105 20.1283 -1.49805 0.837233 -0.196538 -1.53762 66.9588 -1.01745 -1.51827 102.116 15.0532 19.0881 -3.38311e-006 9.27186e-007 -1.054e-006 6.25193 7.53356 -0.652663 -2.58126e-005 -2.9252e-006 -3.00354 8.02932 -4.95142 0.697658 -66.6548 -0.52623 1.22904 -106.467 15.2519 -16.0975 2.7048e-006 1.12702e-006 -5.67448e-006 -5.59306 7.60268 0.180317 6.84271e-006 -3.80642e-006 3.00544 -8.02944 -4.9514 -0.697669 176.849 -3.737 -2.24199 180 7.01511e-015 178.775 177.469 6.11625 179.61 -5.45647e-007 -1.92831e-007 0.12843 -20.0673 69.4346 20.7934 8.15581 25.6583 -2.91218 -172.634 -1.6601 -0.680185 4.54188e-006 -4.6773e-006 -1.21485 -1.93047 -10.4344 0.104068 -2.06898e-006 2.67357e-006 -0.313866 22.819 72.0711 -23.6951 -8.1343 25.3408 3.34645 
52.3076 95.4978 11.8303 -1.25467 -2.78478 2.73988 0.420314 -1.55426 -0.000892717 0.836559 0.894003 -0.0448907 0.837631 2.53897 -0.0589034 -0.386302 20.1139 -1.49426 0.848656 -0.185715 -1.54028 66.9345 -1.03218 -1.52344 102.168 15.0691 19.1072 -3.38311e-006 9.27186e-007 -1.054e-006 6.20328 7.49256 -0.642805 -2.58126e-005 -2.9252e-006 -3.00354 8.02932 -4.95142 0.697658 -66.6857 -0.522255 1.23035 -106.463 15.2906 -16.1183 2.7048e-006 1.12702e-006 -5.67448e-006 -5.56092 7.53233 0.173298 6.84271e-006 -3.80642e-006 3.00544 -8.02944 -4.9514 -0.697669 176.85 -3.73382 -2.24439 180 7.01511e-015 178.775 177.47 6.11477 179.61 -5.45647e-007 -1.92831e-007 0.12843 -20.0689 69.4363 20.7953 8.1558 25.6582 -2.91229 -172.633 -1.65523 -0.680739 4.54188e-006 -4.6773e-006 -1.21472 -1.93038 -10.4379 0.104158 -2.06898e-006 2.67357e-006 -0.313798 22.824 72.0749 -23.7003 -8.13434 25.3414 3.34497 
52.308 95.4983 11.8386 -1.25593 -2.77808 2.73953 0.42161 -1.55494 -0.000686388 0.839596 0.892643 -0.0446152 0.840661 2.53761 -0.0586808 -0.409109 20.0997 -1.49056 0.859788 -0.175096 -1.54293 66.9106 -1.04676 -1.52858 102.22 15.0851 19.1265 -3.38311e-006 9.27186e-007 -1.054e-006 6.15486 7.45151 -0.632988 -2.58126e-005 -2.9252e-006 -3.00354 8.02932 -4.95142 0.697658 -66.7162 -0.518307 1.23165 -106.459 15.3293 -16.1391 2.7048e-006 1.12702e-006 -5.67448e-006 -5.52865 7.4618 0.166271 6.84271e-006 -3.80642e-006 3.00544 -8.02944 -4.9514 -0.697669 176.851 -3.73056 -2.2468 180 7.01511e-015 178.775 177.471 6.11332 179.61 -5.45647e-007 -1.92831e-007 0.12843 -20.0707 69.4381 20.7971 8.15579 25.6581 -2.9124 -172.632 -1.65026 -0.681316 4.54188e-006 -4.6773e-006 -1.2146 -1.9303 -10.4414 0.104244 -2.06898e-006 2.67357e-006 -0.313734 22.8289 72.0787 -23.7055 -8.13438 25.342 3.34351 
52.3081 95.4983 11.8446 -1.25724 -2.77124 2.7392 0.42287 -1.55565 -0.000529801 0.842549 0.891218 -0.044435 0.843611 2.53619 -0.0585521 -0.430947 20.0859 -1.48708 0.870195 -0.164986 -1.54555 66.8878 -1.06094 -1.53363 102.27 15.101 19.1458 -3.38311e-006 9.27186e-007 -1.054e-006 6.107 7.41037 -0.623267 -2.58126e-005 -2.9252e-006 -3.00354 8.02932 -4.95142 0.697658 -66.7461 -0.514427 1.23291 -106.455 15.3679 -16.1603 2.7048e-006 1.12702e-006 -5.67448e-006 -5.49606 7.39079 0.159215 6.84271e-006 -3.80642e-006 3.00544 -8.02944 -4.9514 -0.697669 176.852 -3.7271 -2.24921 180 7.01511e-015 178.775 177.472 6.112 179.61 -5.45647e-007 -1.92831e-007 0.12843 -20.0724 69.4399 20.7989 8.15579 25.6579 -2.91248 -172.63 -1.64505 -0.681949 4.54188e-006 -4.6773e-006 -1.21447 -1.93024 -10.4451 0.104324 -2.06898e-006 2.67357e-006 -0.313682 22.834 72.0825 -23.7108 -8.13442 25.3426 3.34206 
52.3085 95.496 11.8469 -1.25862 -2.7642 2.73891 0.42407 -1.55641 -0.000452801 0.845372 0.88969 -0.0444072 0.846431 2.53466 -0.0585737 -0.451234 20.073 -1.48394 0.879439 -0.155691 -1.54812 66.8669 -1.07448 -1.53853 102.318 15.117 19.1653 -3.38311e-006 9.27186e-007 -1.054e-006 6.06005 7.36909 -0.6137 -2.58126e-005 -2.9252e-006 -3.00354 8.02932 -4.95142 0.697658 -66.7749 -0.510656 1.2341 -106.452 15.4062 -16.1818 2.7048e-006 1.12702e-006 -5.67448e-006 -5.46293 7.31903 0.152115 6.84271e-006 -3.80642e-006 3.00544 -8.02944 -4.9514 -0.697669 176.853 -3.72331 -2.25164 180 7.01511e-015 178.775 177.472 6.11088 179.61 -5.45647e-007 -1.92831e-007 0.12843 -20.0742 69.4417 20.8008 8.15578 25.6579 -2.91254 -172.629 -1.63943 -0.682672 4.54188e-006 -4.6773e-006 -1.21434 -1.93022 -10.449 0.104393 -2.06898e-006 2.67357e-006 -0.313648 22.8391 72.0865 -23.7162 -8.13446 25.3432 3.34066 
